<?xml version="1.0" encoding="UTF-8" standalone="no"?>
<!-- Created with Inkscape (http://www.inkscape.org/) -->

<svg
   version="1.1"
   id="svg1"
   width="24"
   height="23.999998"
   viewBox="0 0 24 23.999998"
   xmlns="http://www.w3.org/2000/svg"
   xmlns:svg="http://www.w3.org/2000/svg">
  <defs
     id="defs1" />
  <g
     id="g1"
     transform="matrix(0.0311051,0,0,0.0235666,23.74051,-29.358174)">
    <path
       id="path1"
       style="fill:#29a1ee;stroke:none"
       d="m -739.64316,1247.3114 c -22.5016,3.9384 -21.18689,22.5697 -22.39979,39.7646 -2.72553,38.6387 0.074,77.6872 0.074,116.3986 v 398.1635 103.5546 c 0,13.2492 -3.57566,31.9594 4.7871,43.3485 11.20247,15.2563 32.13277,11.2384 48.96015,11.2384 h 128.99339 386.9802 120.724588 c 18.30992,0 40.91293,3.4736 58.70853,-0.7222 20.3801099,-4.8051 19.8451399,-23.0299 19.8451399,-39.4152 v -116.3986 c 0,-135.0455 0.82688,-270.2716 0.82688,-405.3883 V 1296.709 c 0,-13.1451 3.1866001,-31.1045 -6.77074,-41.7107 -11.6896899,-12.4515 -34.6867499,-8.0598 -50.2840299,-8.0598 H -180.67177 -558.55628 -680.10775 c -19.01176,0 -40.83554,-2.9 -59.53541,0.3729 m 691.272308,54.2141 v 603.6672 H -705.74105 v -603.6672 h 657.370198 m -329.098538,53.7841 c -11.89683,55.9557 -57.67584,103.0864 -101.70633,137.8636 -14.67921,11.5943 -31.11513,21.2295 -45.47845,33.122 v 0.8027 c 10.92685,12.1517 20.90648,25.1186 31.25687,37.7292 2.79105,3.4006 7.50617,12.0701 11.88449,13.381 3.94994,1.1827 10.99692,-5.9379 13.91342,-8.0615 12.57965,-9.1594 25.83212,-18.028 37.20963,-28.5992 v 32.9127 l 213.33523,-1.6055 v -26.4907 c 12.47145,8.0115 27.75547,19.2404 42.17092,23.2797 l 22.55804,-38.5319 12.17095,-22.477 c -46.2601,-20.9943 -86.74294,-55.1455 -122.37769,-89.9079 -8.5957,-8.3852 -16.36315,-17.8343 -23.67012,-27.2934 -2.57224,-3.3299 -7.03666,-7.8042 -7.72647,-12.0413 -0.76637,-4.7073 3.94959,-11.0191 5.76263,-15.2522 l -30.59459,-4.1494 -58.70853,-4.6809 m -191.00946,8.0275 -31.42146,29.6702 -15.71074,16.0865 c 22.16468,16.336 41.6652,37.0132 61.186,56.1925 4.93292,4.8466 9.45346,10.114 14.06015,15.2516 1.42834,1.593 3.34103,4.5721 5.82072,4.5396 4.46611,-0.059 10.80022,-7.922 14.02442,-10.621 12.48817,-10.4539 24.79267,-21.1159 37.20963,-31.6472 v -0.8028 l -62.84294,-57.9342 -22.32578,-20.7352 m 235.66102,73.8529 c 14.29266,20.2926 34.25504,38.0719 52.09349,55.3897 6.78174,6.5838 15.13806,12.4419 20.67201,20.0687 h -138.91596 l 39.46316,-42.5456 26.6873,-32.9128 m -201.75891,138.0729 -12.75412,33.7154 -27.28706,66.6282 -25.5376,52.1787 -17.10929,31.3072 c 19.98157,10.3267 47.19024,26.8505 60.36229,44.9539 h 1.65377 l 21.14799,-43.3484 35.0799,-90.7106 11.22797,-35.321 3.0823,-13.6467 -13.48339,-13.6783 -36.38276,-32.0784 m 71.93863,24.8852 v 61.8117 l 77.72679,-0.8028 v 162.1553 l 48.78597,0.032 17.69244,-0.8566 1.32581,-10.4135 v -29.7017 -120.4123 c 19.17497,0 41.55762,-4.3463 60.3623,0 -3.79162,12.4526 0,29.5663 0,42.5457 0,4.6652 1.57049,12.8319 -2.07866,16.5096 -2.77109,2.7927 -7.56966,1.7725 -11.15143,2.1828 -11.27413,1.2914 -22.61018,-0.8057 -33.90212,-1.032 4.73938,14.14 9.70177,28.2556 13.94019,42.5457 1.59234,5.3687 3.14103,15.6125 7.31243,19.5961 4.55748,4.3524 17.52327,2.0782 23.39895,2.0782 21.23227,0 56.99219,-0.2114 67.07943,-22.477 7.31531,-16.1471 4.03231,-37.3789 4.03231,-54.5869 v -109.1739 h -274.52441 m 133.94257,408.9486 c -32.96819,3.8944 -68.46355,0.4534 -101.69422,0.4534 h -201.7589 -80.20744 c -11.33255,0 -26.20025,-2.5403 -36.38275,3.1149 -19.65049,10.9137 -13.23724,35.0708 -13.23009,53.0775 v 142.8893 c 0,18.6183 -5.73794,46.3728 18.19137,53.6071 7.36326,2.226 16.34251,0.9799 23.97955,0.9799 h 46.30532 152.97294 343.15551 108.321378 c 17.72252,0 38.04918,2.6563 55.40101,-1.035 24.4491,-5.2013 20.6720199,-32.0151 20.6720199,-50.341 v -142.8893 c 0,-16.4207 5.1506901,-41.5669 -9.1078,-53.6133 -7.9706399,-6.734 -18.2784399,-5.7901 -28.1018399,-5.7901 h -57.05477 c -45.334048,0 -91.149918,1.8934 -136.435318,-0.032 -22.2742,-0.9469 -44.63587,-0.7712 -66.97734,-0.7712 -12.49174,0 -25.64007,-1.1165 -38.04863,0.3494 m -224.07257,177.8609 c -27.76092,38.2555 -95.78561,40.1778 -129.81965,10.2988 -29.90007,-26.2497 -35.00289,-75.4401 -14.00337,-108.2342 21.67405,-33.8475 69.08383,-45.3592 106.61338,-32.6358 10.47586,3.5515 19.67711,9.34 28.11395,16.252 2.30461,1.888 7.27094,5.051 7.27094,8.3563 0,4.6672 -9.87563,11.3589 -13.05911,14.4495 -3.56536,3.4613 -13.10694,16.6837 -18.19455,16.6917 -4.07574,0.01 -10.40552,-7.0444 -14.05379,-9.0941 -11.48292,-6.4512 -26.74525,-7.3901 -38.03652,-0.082 -24.6972,15.9853 -19.41435,65.5546 13.23009,69.4 9.42277,1.1099 19.91833,-0.7354 28.11395,-5.3721 3.38271,-1.9137 9.1944,-9.6285 13.23009,-8.6518 3.43698,0.8317 6.69418,5.4185 9.09569,7.75 l 21.4989,20.8714 m 95.91817,-135.4354 c 32.8116,-3.7584 70.26833,14.9761 85.72826,43.1193 15.59829,28.395 11.7613,66.6828 -9.21245,91.5134 -15.95654,18.8907 -37.94491,28.2318 -62.45884,31.078 -24.84998,2.8853 -52.87109,-4.2142 -71.93863,-20.0805 -32.14877,-26.7513 -40.30498,-76.6803 -15.09441,-110.5384 17.78791,-23.8894 44.46619,-31.8261 72.97607,-35.0918 m 168.68367,120.1832 h 63.66982 l 0.82688,42.5457 h -118.24395 c 4.0317,-16.4405 0.82688,-36.8845 0.82688,-53.7842 0,-35.57 0.74265,-71.2719 -0.82688,-106.7656 h 38.03651 l 14.38492,0.8251 1.32582,8.0051 v 20.8715 88.3024 m 84.34184,42.5457 V 2053.701 c 39.62052,0 87.52586,-6.9175 122.378348,15.3154 50.15891,31.997 47.12907,110.3781 -7.44193,136.196 -33.686358,15.9373 -78.537818,9.0384 -114.936418,9.0384 m 52.92036,-118.8069 v 76.2612 c 13.02237,0 27.97244,1.2368 38.78941,-7.2595 16.352848,-12.8445 14.905148,-47.5922 -0.82753,-60.5585 -10.84701,-8.9398 -24.61823,-8.4432 -37.96188,-8.4432 m -310.90716,2.7805 c -27.14439,4.6581 -35.81374,41.1497 -20.84684,61.4394 8.28894,11.2369 23.90187,14.6639 37.38446,12.3503 29.61857,-5.0824 37.07884,-45.3938 17.2873,-65.2995 -8.55936,-8.6087 -22.06768,-10.5077 -33.82492,-8.4902 z" />
  </g>
</svg>
