<?xml version="1.0" encoding="UTF-8" standalone="no"?>
<!-- Created with Inkscape (http://www.inkscape.org/) -->

<svg
   version="1.1"
   id="svg1"
   width="927.10425"
   height="1317.1263"
   viewBox="0 0 927.10425 1317.1263"
   sodipodi:docname="hot.svg"
   inkscape:version="1.4.2 (ebf0e940, 2025-05-08)"
   xmlns:inkscape="http://www.inkscape.org/namespaces/inkscape"
   xmlns:sodipodi="http://sodipodi.sourceforge.net/DTD/sodipodi-0.dtd"
   xmlns="http://www.w3.org/2000/svg"
   xmlns:svg="http://www.w3.org/2000/svg">
  <sodipodi:namedview
     id="namedview1"
     pagecolor="#ffffff"
     bordercolor="#000000"
     borderopacity="0.25"
     inkscape:showpageshadow="2"
     inkscape:pageopacity="0.0"
     inkscape:pagecheckerboard="0"
     inkscape:deskcolor="#d1d1d1"
     inkscape:zoom="8.5837113"
     inkscape:cx="46.250391"
     inkscape:cy="22.542697"
     inkscape:window-width="1384"
     inkscape:window-height="813"
     inkscape:window-x="0"
     inkscape:window-y="38"
     inkscape:window-maximized="0"
     inkscape:current-layer="svg1" />
  <defs
     id="defs1" />
  <g
     id="g1"
     transform="matrix(0.02588706,0,0,0.01822149,18.792012,-15.347458)"
     inkscape:transform-center-x="67.399401"
     inkscape:transform-center-y="-199.06335"
     inkscape:export-filename="g1.svg"
     inkscape:export-xdpi="96"
     inkscape:export-ydpi="96">
    <path
       id="path1"
       style="fill:#f83a30;stroke:none"
       d="m 718.92756,1653.5555 c -24.30825,5.1859 -26,28.1586 -26,48.4823 v 148 495 128 c 0,17.8488 -3.91198,40.6043 7.04398,55.9962 12.68614,17.8226 39.02069,13.0038 57.95602,13.0038 h 155 468.00004 144 c 21.8112,0 48.9041,4.3023 70,-1.49 23.2968,-6.3965 24,-29.8973 24,-49.51 v -145 c 0,-167.7203 -1,-335.2877 -1,-503 v -127 c 0,-16.8618 3.9228,-38.3471 -8.1852,-51.9961 -14.522,-16.3702 -41.1298,-11.0039 -60.8148,-11.0039 h -156 -459.00004 -145 c -21.98969,0 -48.51129,-4.0666 -70,0.5177 m 831.00004,66.4823 1,753 H 759.92756 v -753 h 790.00004 m -579.00004,68 v 63 h -83 v 75 h 84 v 25 h -89 v 77 l 54,-1 35,-1 v 31 l -97,11 15,82 82,-13 c -1.48123,34.4928 -42.54236,26 -67,26 l 7.25,45 4.31403,15.9723 18.43597,1.0277 c -13.5347,28.5632 -28.5899,56.0562 -46.71991,82 -9.34055,13.3662 -24.49249,26.4244 -31.28009,41 l 65,30.4244 23.78705,9.7593 6.07406,-8.1837 13,-24 32.44446,-67 17.69447,-41 -79.00004,-22 v -1 c 31.03748,0 76.81584,8.2157 101.99614,-14.1844 16.8088,-14.9529 20.4606,-39.5874 21.9144,-60.8156 0.4635,-6.769 -2.6843,-19.8985 1.1172,-25.6859 2.759,-4.2002 12.487,-3.8329 16.9723,-4.5602 16.8012,-2.7246 34.0366,-6.4131 51,-7.7539 v -25 l 22,11 c -10.6838,22.4842 -31.2798,42.0164 -49,58.9607 -4.1528,3.9709 -20.7908,14.2864 -20.7932,20.1288 -10e-4,3.3027 4.3903,6.6274 6.3688,8.9105 6.2209,7.1787 12.9861,13.8628 19.2693,21 5.4704,6.214 16.7607,23.6634 25.1551,25.1219 7.8512,1.3641 23.494,-14.3115 29,-19.1728 24.265,-21.4237 54.9327,-52.1354 65,-83.9491 14.7686,9.1972 29.3896,25.6981 46,31 l 24.5756,-51 12.4244,-27 c 0,24.0072 -0.3302,48.3488 4.3996,72 4.0392,20.1974 11.8528,37.9788 27.6004,51.8156 22.0613,19.3844 63.8705,21.959 87,2.8557 29.8908,-24.6877 31.4832,-71.1325 33.0393,-106.6713 0.3706,-8.4624 5.4672,-27.3248 0.9329,-34.6598 -2.4867,-4.0227 -9.8835,-6.5044 -13.9722,-8.5839 -11.0259,-5.6081 -22.0578,-13.3161 -34,-16.7563 -2.5615,20.2681 -3.9825,40.6792 -6.1659,61 -0.4604,4.2847 -0.9265,17.974 -7.8056,17.0787 -5.6668,-0.7375 -6.2212,-10.8354 -6.7423,-15.0787 -1.9478,-15.8601 -1.2616,-32.036 -1.2862,-48 -0.1051,-67.9388 -1,-136.0046 -1,-204 h -72 l -37,-1 c 5.3338,-18.0445 1,-43.1499 1,-62 h -92 v 63 h -43 v 81 h 39 c -0.1695,20.4743 -3.4514,41.7954 -6.7539,62 -0.8604,5.2638 -0.7997,17.5996 -4.9845,21.3064 -6.2936,5.5747 -21.4377,-7.7723 -28.9584,-4.6629 -3.8411,1.5881 -4.7511,10.7689 -5.6736,14.3565 -3.7296,14.5042 -9.9746,29.9779 -10.6296,45 h -1 l -1.2462,-23 -1.3958,-7.9684 -16.358,0.9183 -50,6.0501 v -23 h 73 v -72 h -74 v -27 h 72 c -4.4088,-23.7481 -1,-50.851 -1,-75 h -71 v -63 h -88.00004 m 337.00004,146 c 0,45.4729 -4.698,93.9136 1,139 l -50,-26 c 8.6434,-37.3607 21.1979,-74.1379 22,-113 h 27 m 0,308 17.2191,40 30.0008,66 11.0887,24 5.9043,8.1867 24.7871,-8.7623 61,-24.4244 c -3.5243,-12.2342 -11.6572,-23.8427 -17.6914,-35 -10.6007,-19.601 -20.5926,-39.5409 -31.4483,-59 -3.7718,-6.7611 -10.0993,-26.245 -17.2508,-29.3819 -5.542,-2.431 -16.9416,2.6987 -22.6095,3.9575 -20.2851,4.5053 -41.0034,8.8028 -61,14.4244 m -128,5 13,95 3.1551,25 2.4475,8.9723 23.3974,-0.012 43,-2.9213 30,-2.0394 -9.8032,-54 -14.1968,-73 -91,3 m -137,0 v 133 l 96,-2 -1,-99 v -24 l -1.6034,-8.9714 -24.3966,-0.029 -69,1 m -323.00004,353.5178 c -33.34631,7.1142 -27,48.1385 -27,73.4822 v 214 c 0,22.6012 -6.7269,60.597 17,73.6868 18.88753,10.4199 48.06433,5.3132 69,5.3132 h 154 459.00004 137 c 20.2461,0 46.6355,4.4221 66,-2.105 29.745,-10.0259 23,-46.4148 23,-70.895 v -213 c 0,-24.5273 8.6397,-66.8201 -20,-78.5247 -8.7913,-3.5929 -18.7144,-2.4753 -28,-2.4753 h -48 -172 -429.00004 -136 c -20.44036,0 -45.02151,-3.7445 -65,0.5178 m 452.00004,54.7677 c 38.4439,-4.5978 81.1153,9.5099 107.8302,37.7538 41.0127,43.36 47.8981,115.9024 12.7415,164.9607 -10.0842,14.0718 -22.8511,25.8502 -37.5717,34.9352 -15.005,9.2604 -32.5738,14.6671 -50,16.7793 -40.3243,4.8876 -84.2515,-6.8339 -112.9607,-36.7152 -55.1032,-57.3531 -44.4326,-158.8715 24.9607,-199.9847 16.9332,-10.0322 35.563,-15.4045 55,-17.7291 m -303.00004,4.7145 v 91 h 81 c 0,-21.6267 0.24292,-43.3282 -0.42902,-64.9105 -0.16928,-5.4367 -2.90124,-20.2429 0.45679,-24.4861 2.53497,-3.2031 11.34107,-1.6034 14.97223,-1.6034 h 42.00004 c 3.8609,0 14.3363,-1.869 16.3966,2.3179 2.4124,4.9027 0.6034,14.286 0.6034,19.6821 v 49 175 h -75.00004 l 1,-99 h -81 v 99 h -77 v -246 h 77 m 663.00004,0 v 61 h -67 v 185 h -76 v -185 h -68 v -61 h 211 m -347,59.4637 c -12.9303,1.1365 -25.1299,4.8394 -34.9854,13.7207 -40.3447,36.3569 -17.5932,119.6061 41.9854,113.6451 70.5725,-7.0612 66.7207,-133.8455 -7,-127.3658 z" />
  </g>
</svg>
