<?xml version="1.0" encoding="UTF-8" standalone="no"?>
<!-- Created with Inkscape (http://www.inkscape.org/) -->

<svg
   width="210mm"
   height="297mm"
   viewBox="0 0 210 297"
   version="1.1"
   id="svg1"
   xml:space="preserve"
   xmlns:inkscape="http://www.inkscape.org/namespaces/inkscape"
   xmlns:sodipodi="http://sodipodi.sourceforge.net/DTD/sodipodi-0.dtd"
   xmlns="http://www.w3.org/2000/svg"
   xmlns:svg="http://www.w3.org/2000/svg"><sodipodi:namedview
     id="namedview1"
     pagecolor="#ffffff"
     bordercolor="#000000"
     borderopacity="0.25"
     inkscape:showpageshadow="2"
     inkscape:pageopacity="0.0"
     inkscape:pagecheckerboard="0"
     inkscape:deskcolor="#d1d1d1"
     inkscape:document-units="mm"><inkscape:page
       x="0"
       y="0"
       width="210"
       height="297"
       id="page2"
       margin="0"
       bleed="0" /></sodipodi:namedview><defs
     id="defs1" /><g
     inkscape:label="圖層 1"
     inkscape:groupmode="layer"
     id="layer1"
     style="display:inline"
     inkscape:export-filename="limited.svg"
     inkscape:export-xdpi="96"
     inkscape:export-ydpi="96"><g
       id="g25"><path
         style="display:inline;fill:#f02b23;stroke:none;stroke-width:0.239924"
         d="m 99.696292,129.21879 c -7.415317,5.32689 -13.787021,13.18371 -8.383983,21.32115 2.814968,4.23959 7.906663,7.30824 9.309201,12.1835 1.45907,5.07174 -1.003318,9.37524 -3.306468,13.92402 2.23644,-0.81965 4.127908,-2.49188 5.816958,-3.91613 1.50501,-1.26904 2.8172,-2.74173 3.73724,-4.35125 2.80412,-4.90559 1.96617,-10.48192 -1.53605,-15.01182 -2.83546,-3.66748 -7.017818,-6.74484 -8.309678,-11.09571 -0.85043,-2.86419 -0.48807,-5.91862 0.65023,-8.70251 0.52139,-1.27516 2.17328,-3.04379 2.02255,-4.35125 m -27.781249,6.30932 c -2.08621,1.70125 -4.193511,3.22325 -5.89453,5.2215 -1.131091,1.32872 -2.085846,2.80563 -2.699115,4.35126 -3.835014,9.66543 8.246816,13.67822 10.369981,21.97383 1.217149,4.75563 -1.474409,8.34927 -3.363836,12.61864 2.182408,-1.11756 4.309184,-2.51427 5.969249,-4.13369 1.358686,-1.32542 2.476828,-2.76436 3.327712,-4.35126 2.357229,-4.39623 1.296707,-9.51674 -1.808805,-13.48887 -2.774143,-3.54832 -6.736919,-6.48344 -8.168598,-10.66059 -0.81874,-2.38881 -0.535199,-5.06444 0.436682,-7.39713 0.500139,-1.20045 2.056278,-2.89197 1.83126,-4.13369 m 57.414567,0 c -2.00974,1.65258 -3.9782,3.26409 -5.55522,5.2215 -1.09323,1.3569 -1.96259,2.79669 -2.55497,4.35126 -3.57978,9.39428 8.24138,13.56996 10.1446,21.75626 1.12551,4.84117 -1.65655,8.58098 -3.88649,12.83621 2.23647,-0.81964 4.1279,-2.49188 5.81697,-3.91613 1.44413,-1.21768 2.70939,-2.60886 3.6366,-4.13369 2.85665,-4.69797 1.80316,-10.29318 -1.65262,-14.57669 -2.64155,-3.27428 -6.35278,-6.14926 -7.74562,-10.0079 -0.8484,-2.35041 -0.70626,-4.84484 0.13536,-7.17957 0.44767,-1.24185 1.91341,-3.10723 1.66139,-4.35125 m -43.127067,73.10108 c 14.330497,0.24324 28.307837,0.61479 42.597907,-0.87025 0.006,-1.63799 -0.86032,-5.22891 -0.14108,-6.64354 0.42728,-0.84036 1.93001,-1.42493 2.78691,-1.93372 2.40253,-1.42654 4.74105,-2.92461 7.14375,-4.35126 8.74284,-5.19122 17.30658,-10.59975 25.92918,-15.92607 3.38447,-2.09063 6.75632,-4.20817 10.05417,-6.39074 2.25859,-1.49477 4.24545,-3.29779 3.56698,-5.87404 -0.67583,-2.56609 -4.00939,-4.05593 -7.00657,-3.17898 -4.57914,1.33981 -8.75322,5.24791 -12.43542,7.76545 -7.95901,5.44161 -15.85651,10.94458 -23.8125,16.38954 -3.03708,2.07856 -6.90486,5.95724 -10.58333,7.12402 -1.12452,0.35669 -2.68031,-0.7749 -3.70416,-1.11904 -2.33494,-0.78482 -4.8927,-1.13836 -7.40834,-1.08781 -11.64689,0.23396 -22.629569,7.4894 -26.987497,16.09644 m 61.912487,-16.31721 c 3.83464,1.20702 7.83487,1.901 11.37709,3.71285 1.36792,0.69969 3.02392,1.63959 3.34753,3.0316 0.57376,2.46803 -2.99032,4.04145 -5.19962,4.9499 -6.20029,2.54951 -13.34815,3.76451 -20.10833,4.84043 -23.03812,3.66665 -48.093252,3.4591 -71.172907,0.16317 -7.491365,-1.06982 -15.144594,-2.48071 -21.960417,-5.33162 -2.243613,-0.93845 -6.534509,-3.23207 -4.325204,-5.69005 3.381462,-3.76207 12.087222,-5.19183 17.289788,-6.24755 16.786685,-3.40641 33.901417,-3.34486 51.06458,-3.34486 4.11146,0 8.34271,0.15179 12.43542,0.47207 1.82554,0.14285 4.59502,0.79165 6.34999,0.26708 1.92026,-0.57395 4.59078,-2.68098 5.82083,-4.00259 -6.68239,-0.0455 -13.42341,-1.05611 -20.10832,-1.2968 -17.709933,-0.63766 -36.005013,-0.26567 -53.445834,2.60218 -7.868602,1.29387 -20.945903,3.17659 -25.188293,9.57276 -1.81007,2.72902 -0.859883,6.42781 -0.276831,9.3552 1.687594,8.47316 6.0834,16.17612 12.988674,22.62653 3.748971,3.50203 8.207959,6.62238 13.005617,9.12607 2.403462,1.25427 5.738239,2.18813 7.853389,3.70277 1.038662,0.74378 0.50591,2.26535 0.736994,3.27081 0.429059,1.86695 2.001952,3.3318 4.109617,4.05783 3.301881,1.1374 7.861964,0.51099 11.377083,0.51099 h 23.547914 15.875 c 2.55694,0 5.45372,0.26521 7.67291,-1.01142 1.55249,-0.8931 2.6987,-2.23821 3.05131,-3.77496 0.21987,-0.95839 -0.25453,-2.34326 0.73697,-3.05325 3.54661,-2.53968 8.57779,-4.06092 12.3513,-6.52016 11.00154,-7.16986 18.8779,-16.7476 21.05442,-28.28252 0.56473,-2.99297 1.60366,-7.18882 -0.15129,-10.00789 -1.93479,-3.10797 -6.59435,-4.82915 -10.31979,-6.08941 -1.19182,-0.40314 -2.91148,-1.17286 -4.23334,-0.97633 -1.81808,0.2703 -4.42206,2.22151 -5.55625,3.36717 M 39.90046,254.20173 c -5.144617,0.81329 -4.233334,5.60383 -4.233334,8.81817 v 25.01972 c 0,2.96068 -1.028247,7.29336 2.64685,9.08812 2.613617,1.27638 6.608971,0.7022 9.523984,0.7022 h 21.43125 66.41041 19.31458 c 2.86036,0 6.54846,0.50255 9.26043,-0.33994 4.36356,-1.35554 3.43958,-5.52045 3.43958,-8.58013 v -25.23728 c 0,-3.09962 1.18872,-7.78308 -3.175,-9.2501 -3.07373,-1.03335 -7.82358,-0.32267 -11.11251,-0.32267 h -24.60625 -60.060407 -19.05 c -3.138085,0 -6.704349,-0.38585 -9.789583,0.10191 m 65.88125,6.92239 c 10.84826,-1.01005 20.0191,7.49421 19.29091,16.03736 -0.62367,7.31703 -7.83334,13.18591 -16.64508,13.8871 -15.624714,1.2433 -27.116584,-13.93574 -16.582593,-24.33011 3.645892,-3.59756 8.445393,-5.08305 13.936763,-5.59435 m -44.979167,0.5904 v 10.66058 h 12.7 v -10.66058 h 9.260417 v 28.71829 h -9.260417 v -11.31326 h -12.7 v 11.31326 h -9.260417 l -0.264583,-28.71829 h 9.525 m 93.927077,0 v 6.96201 l -9.78959,-0.21757 0.26459,21.97385 h -9.26042 v -16.09965 c 0,-1.25479 0.71287,-4.59033 -0.42423,-5.52535 -0.64183,-0.52777 -1.93032,-0.3488 -2.75077,-0.34885 h -6.61457 l -0.26459,-6.74444 h 28.83958 m -50.27083,6.42198 c -11.459239,2.01336 -7.780288,17.98196 4.23333,15.87436 11.45509,-2.00961 7.75968,-17.9815 -4.23333,-15.87436 z"
         id="path1-2"
         sodipodi:nodetypes="csscsssssccssscsssssccssscscssscccssssssssssscccssssssssssscsssssssssscsssssssssccssssccssssssccsccssscccccccccccccccccccssccccsss" /></g></g><path
     style="fill:#aa0000;stroke-width:0.744347"
     d="m 139.19307,115.74611 c 0,-0.40939 0.35472,-0.74435 0.78827,-0.74435 0.43355,0 0.58127,0.33496 0.32825,0.74435 -0.25302,0.40939 -0.60774,0.74434 -0.78828,0.74434 -0.18053,0 -0.32824,-0.33495 -0.32824,-0.74434 z"
     id="path20" /></svg>
