<?xml version="1.0" encoding="UTF-8" standalone="no"?>
<!-- Created with Inkscape (http://www.inkscape.org/) -->

<svg
   version="1.1"
   id="svg1"
   width="548.16986"
   height="775.68359"
   viewBox="0 0 548.16986 775.68359"
   xmlns="http://www.w3.org/2000/svg"
   xmlns:svg="http://www.w3.org/2000/svg">
  <defs
     id="defs1" />
  <g
     id="g1"
     transform="translate(-508.70389,-1269.795)">
    <path
       style="fill:#f02b23;stroke:none"
       d="m 759.88221,1269.7951 c -28.0264,24.4844 -52.10843,60.5973 -31.6875,98 10.63925,19.4867 29.88345,33.5914 35.18441,55.9999 5.51459,23.3116 -3.79211,43.0921 -12.49691,64 8.45269,-3.7674 15.60156,-11.4536 21.98535,-18 5.68823,-5.833 10.6477,-12.602 14.125,-20 10.59827,-22.5479 7.43121,-48.1788 -5.80554,-68.9999 -10.71668,-16.8571 -26.52402,-31.0018 -31.40665,-51 -3.21423,-13.1649 -1.8447,-27.2042 2.45755,-40 1.97061,-5.8611 8.21396,-13.9904 7.64429,-20 m -105,29 c -7.88489,7.8196 -15.84949,14.8153 -22.27854,24 -4.27499,6.1073 -7.88351,12.8957 -10.20138,20 -14.49454,44.4259 31.16907,62.8702 39.19363,100.9999 4.60025,21.8587 -5.57257,38.3764 -12.71371,58 8.24847,-5.1367 16.28668,-11.5565 22.56094,-19 5.13519,-6.0921 9.36124,-12.706 12.57718,-20 8.90921,-20.2067 4.90094,-43.7425 -6.83643,-61.9999 -10.48495,-16.3094 -25.46237,-29.8003 -30.87344,-49 -3.09445,-10.9799 -2.0228,-23.2781 1.65045,-34 1.89029,-5.5177 7.77176,-13.2926 6.9213,-19 m 216.99995,0 c -7.5959,7.5959 -15.03572,15.003 -20.99611,24 -4.13189,6.2368 -7.41766,12.8546 -9.65661,20 -13.52985,43.1796 31.14852,62.3726 38.34182,99.9999 4.2539,22.2518 -6.261,39.4414 -14.6891,59 8.4528,-3.7674 15.6015,-11.4536 21.9854,-18 5.4581,-5.5969 10.2402,-11.9913 13.7446,-19 10.7968,-21.5936 6.8151,-47.3113 -6.2461,-66.9999 -9.9838,-15.0498 -24.0105,-28.2643 -29.2748,-46 -3.20655,-10.8034 -2.66932,-22.2687 0.5116,-33 1.692,-5.708 7.2318,-14.282 6.2793,-20 M 708.88221,1634.795 c 54.16253,1.118 106.99023,2.8258 160.99995,-4 0.021,-7.5288 -3.2516,-24.034 -0.5332,-30.5362 1.6149,-3.8626 7.2945,-6.5495 10.5332,-8.8881 9.0804,-6.5569 17.9189,-13.4426 27,-20 33.0438,-23.8608 65.4107,-48.7204 98.00004,-73.2022 12.7917,-9.6093 25.5357,-19.3423 38,-29.3742 8.5364,-6.8705 16.0458,-15.1579 13.4815,-26.9993 -2.5543,-11.7947 -15.1536,-18.6426 -26.4815,-14.6118 -17.307,6.1583 -33.08304,24.1214 -47.00004,35.6929 -30.0813,25.0117 -59.9301,50.3054 -90,75.3325 -11.4787,9.5538 -26.0971,27.3817 -39.99995,32.7446 -4.25019,1.6395 -10.13031,-3.5617 -14,-5.1435 -8.82495,-3.6073 -18.49207,-5.2323 -28,-5 -44.01972,1.0754 -85.52909,34.4241 -102,73.9853 m 233.99995,-75 c 14.4931,5.5479 29.6121,8.7377 43,17.0656 5.1701,3.2161 11.429,7.5362 12.6521,13.9344 2.16854,11.344 -11.302,18.576 -19.6521,22.7516 -23.4342,11.7185 -50.4497,17.3031 -76,22.2484 -87.07319,16.8533 -181.76976,15.8993 -268.99995,0.75 -28.31382,-4.9173 -57.23941,-11.4023 -83,-24.5061 -8.4798,-4.3135 -24.69736,-14.8558 -16.34723,-26.1536 12.78033,-17.2919 45.68399,-23.8636 65.34723,-28.7161 63.44574,-15.6571 128.13134,-15.3742 193,-15.3742 15.53936,0 31.53149,0.6977 47,2.1698 6.89966,0.6566 17.367,3.6387 23.99995,1.2276 7.2577,-2.6381 17.351,-12.3228 22,-18.3974 -25.2563,-0.209 -50.73414,-4.8543 -75.99995,-5.9606 -66.93518,-2.9309 -136.08194,-1.2211 -202,11.9606 -29.7396,5.9471 -79.16562,14.6008 -95.19985,44 -6.84121,12.5436 -3.24995,29.5446 -1.04629,43 6.37831,38.9458 22.99238,74.3515 49.09105,104 14.16934,16.0966 31.02221,30.4389 49.15509,41.9468 9.08395,5.7651 21.68783,10.0575 29.6821,17.0193 3.92565,3.4187 1.9121,10.4124 2.78549,15.0339 1.62164,8.5812 7.56643,15.3142 15.53241,18.6513 12.47955,5.2279 29.71451,2.3487 43,2.3487 h 89 60 c 9.664,0 20.61245,1.219 28.99995,-4.6489 5.8677,-4.105 10.1998,-10.2876 11.5325,-17.3511 0.831,-4.4051 -0.962,-10.7705 2.7854,-14.0339 13.4045,-11.6733 32.42,-18.6655 46.6821,-29.9691 41.5806,-32.9553 71.34954,-76.9782 79.57574,-129.997 2.1344,-13.7568 6.0611,-33.0425 -0.5718,-46 -7.3126,-14.2854 -24.92354,-22.1966 -39.00394,-27.9892 -4.5045,-1.853 -11.004,-5.3909 -16,-4.4876 -6.8715,1.2424 -16.7133,10.2109 -21,15.4768 m -408.99995,284.4684 c -19.44422,3.7382 -16,25.7573 -16,40.5316 v 115 c 0,13.6084 -3.88629,33.523 10.00384,41.7724 9.87824,5.8667 24.97879,3.2276 35.99616,3.2276 h 81 250.99995 73 c 10.8108,0 24.7501,2.3099 35.00004,-1.5625 16.4922,-6.2306 13,-25.3741 13,-39.4375 v -116 c 0,-14.247 4.4928,-35.7739 -12,-42.5169 -11.61724,-4.7497 -29.56944,-1.4831 -42.00004,-1.4831 h -93 -226.99995 -72 c -11.86048,0 -25.33927,-1.7735 -37,0.4684 m 249,31.8179 c 41.00128,-4.6426 75.66272,34.4462 72.91052,73.7137 -2.35718,33.6318 -29.60632,60.6074 -62.91052,63.8303 -59.05405,5.7147 -102.48789,-64.0539 -62.67438,-111.8303 13.77975,-16.5357 31.91962,-23.3636 52.67438,-25.7137 m -170,2.7137 v 49 h 48 v -49 h 35 v 132 h -35 v -52 h -48 v 52 h -35 l -1,-132 h 36 m 354.99995,0 v 32 l -37,-1 1,101 h -35 v -74 c 0,-5.7675 2.6943,-21.0989 -1.6034,-25.3966 -2.4258,-2.4258 -7.2957,-1.6032 -10.3966,-1.6034 h -24.99995 l -1,-31 h 108.99995 m -189.99995,29.5178 c -43.31052,9.2542 -29.40583,82.6518 16,72.9645 43.2948,-9.2369 29.32788,-82.6497 -16,-72.9645 z"
       id="path1" />
  </g>
</svg>
