<?xml version="1.0" encoding="UTF-8" standalone="no"?>
<!-- Created with Inkscape (http://www.inkscape.org/) -->

<svg
   width="14.015747mm"
   height="40.735748mm"
   viewBox="0 0 14.015747 40.735748"
   version="1.1"
   id="svg1"
   xml:space="preserve"
   xmlns:inkscape="http://www.inkscape.org/namespaces/inkscape"
   xmlns:sodipodi="http://sodipodi.sourceforge.net/DTD/sodipodi-0.dtd"
   xmlns="http://www.w3.org/2000/svg"
   xmlns:svg="http://www.w3.org/2000/svg"><sodipodi:namedview
     id="namedview1"
     pagecolor="#ffffff"
     bordercolor="#000000"
     borderopacity="0.25"
     inkscape:showpageshadow="2"
     inkscape:pageopacity="0.0"
     inkscape:pagecheckerboard="0"
     inkscape:deskcolor="#d1d1d1"
     inkscape:document-units="mm"><inkscape:page
       x="1.1774129e-15"
       y="0"
       width="14.015746"
       height="40.735748"
       id="page2"
       margin="0"
       bleed="0" /></sodipodi:namedview><defs
     id="defs1" /><g
     inkscape:label="圖層 1"
     inkscape:groupmode="layer"
     id="layer1"
     transform="translate(-103.91583,-126.45111)"><path
       style="fill:#000000;stroke-width:0.884689"
       d="m 105.31977,167.0167 c -0.17738,-0.13633 -0.21891,-0.37199 -0.21891,-1.24209 v -1.07384 h 0.33069 c 0.32604,0 0.33069,0.0106 0.33069,0.75993 0,0.66028 0.0347,0.775 0.26455,0.87485 0.16191,0.0704 0.26455,0.21456 0.26455,0.37175 0,0.45894 -0.54939,0.63389 -0.97157,0.3094 z m 0.57474,-0.28635 c 0,-0.0476 -0.0595,-0.11216 -0.13227,-0.14344 -0.0727,-0.0313 -0.13228,0.008 -0.13228,0.0866 0,0.0789 0.0595,0.14344 0.13228,0.14344 0.0727,0 0.13227,-0.039 0.13227,-0.0866 z m 0.88029,0.28635 c -0.17738,-0.13633 -0.21891,-0.37199 -0.21891,-1.24209 v -1.07384 h 0.33068 c 0.32659,0 0.33069,0.01 0.33069,0.77586 0,0.69506 0.0276,0.78194 0.26455,0.83426 0.19268,0.0425 0.26455,0.13921 0.26455,0.35583 0,0.49677 -0.53148,0.68823 -0.97156,0.34998 z m 0.57474,-0.28635 c 0,-0.0476 -0.0595,-0.11216 -0.13228,-0.14344 -0.0727,-0.0313 -0.13227,0.008 -0.13227,0.0866 0,0.0789 0.0595,0.14344 0.13227,0.14344 0.0727,0 0.13228,-0.039 0.13228,-0.0866 z m 2.53352,-0.41953 c 0.0344,-0.655 0.004,-0.87412 -0.11951,-0.87406 -0.30267,1.2e-4 -0.17052,-0.36136 0.1926,-0.52685 0.4921,-0.22429 1.51176,-0.21769 1.87685,0.0121 0.2519,0.15856 0.27844,0.27476 0.27844,1.21909 0,0.9765 -0.0168,1.04382 -0.26008,1.04382 -0.23994,0 -0.26298,-0.0758 -0.29762,-0.97928 -0.0414,-1.0795 -0.14587,-1.21874 -0.82557,-1.10008 -0.35893,0.0627 -0.3613,0.0676 -0.12243,0.25111 0.22935,0.17628 0.23022,0.19242 0.0148,0.27625 -0.18687,0.0727 -0.22873,0.22288 -0.22873,0.82052 0,0.68137 -0.019,0.73148 -0.27732,0.73148 -0.26533,0 -0.27533,-0.0378 -0.23148,-0.87413 z m 6.03217,0.61332 c -0.24435,-0.28773 -1.27289,-0.97717 -1.55555,-1.04271 -0.10683,-0.0247 -0.14496,-0.10411 -0.0942,-0.19607 0.11997,-0.21746 0.67725,-0.0595 1.3182,0.37366 l 0.49603,0.33522 v -0.36457 c 0,-0.26492 -0.0723,-0.39598 -0.26455,-0.47949 -0.48842,-0.21217 -0.27719,-0.84941 0.28156,-0.84941 0.53526,0 0.64437,0.2348 0.64437,1.38668 0,1.08172 -0.004,1.09751 -0.30217,1.09751 -0.19156,0 -0.38325,-0.0955 -0.52367,-0.26082 z m 0.24438,-1.83042 c -0.13446,-0.0935 -0.2454,0.0473 -0.13508,0.17144 0.0833,0.0938 0.11449,0.0939 0.1593,3.7e-4 0.0306,-0.0639 0.0197,-0.14124 -0.0242,-0.17181 z m -7.02436,-17.79325 c -1.22087,-0.0896 -2.25215,-0.3614 -2.85602,-0.75272 -0.26581,-0.17225 -0.28027,-0.25028 -0.22334,-1.20538 0.0771,-1.2935 0.38643,-2.08287 0.95143,-2.42794 0.64305,-0.39272 3.14653,-1.05008 4.20029,-1.1029 0.81431,-0.0409 0.90805,-0.026 1.22354,0.19346 0.63253,0.43996 0.34698,1.35552 -0.67661,2.16943 -0.5994,0.47661 -0.63001,0.48792 -1.19937,0.44328 -0.55027,-0.0431 -0.59208,-0.0302 -0.71839,0.2218 -0.22683,0.45259 -1.02912,0.61158 -1.30127,0.25787 -0.11425,-0.14848 -0.0886,-0.29387 0.1177,-0.66705 0.14509,-0.26245 0.37449,-0.73057 0.50979,-1.04026 l 0.24599,-0.56308 -1.04145,0.31005 c -0.57279,0.17054 -1.06752,0.31007 -1.0994,0.31007 -0.0319,0 -0.0415,0.60945 -0.0213,1.35434 l 0.0366,1.35434 0.59665,0.15398 c 0.97909,0.25267 6.44485,0.23559 7.16515,-0.0224 0.12217,-0.0438 0.64672,-0.6616 1.16566,-1.37299 0.51895,-0.7114 1.03772,-1.31858 1.15283,-1.34931 0.31633,-0.0844 0.56785,0.22946 0.56785,0.70866 0,0.46046 -0.56374,1.927 -0.88765,2.30919 -0.32639,0.3851 -0.68208,0.48047 -2.28695,0.61323 -2.05806,0.17025 -4.18546,0.20973 -5.62169,0.10433 z m 2.0618,-4.38374 c 0.0809,-0.17052 0.11936,-0.32933 0.0854,-0.35292 -0.0339,-0.0236 -0.30856,-0.0154 -0.61033,0.0182 -0.44621,0.0496 -0.52045,0.0847 -0.39756,0.18768 0.0967,0.081 0.12113,0.30046 0.0679,0.60907 l -0.0832,0.48243 0.39533,-0.31718 c 0.21744,-0.17445 0.46154,-0.45669 0.54244,-0.62721 z m -1.92553,-1.73418 c -0.19624,-0.1365 -0.18588,-0.17149 0.12948,-0.43703 0.49509,-0.41689 1.38769,-1.74135 1.38769,-2.0591 0,-0.29372 -0.47792,-0.68422 -0.63639,-0.51997 -0.65136,0.67512 -1.67061,1.60863 -1.97883,1.81233 -0.30316,0.20037 -0.46724,0.24456 -0.73467,0.19787 -0.57478,-0.10034 -0.56937,-0.36332 0.0185,-0.89746 0.79159,-0.71929 2.53935,-2.61629 2.69309,-2.92306 0.1646,-0.32841 0.29016,-0.33615 0.7105,-0.0437 0.38777,0.26973 0.39415,0.34889 0.0683,0.84809 l -0.25056,0.38385 0.50596,0.24389 c 0.96511,0.46521 1.02893,1.15129 0.21383,2.29847 -0.79368,1.11702 -1.54209,1.50265 -2.12686,1.0959 z m -5.12966,-7.21957 c -0.35516,-0.14389 -0.28308,-0.54449 0.15515,-0.86232 0.45995,-0.33358 0.93612,-1.26382 0.93612,-1.82878 0,-0.22225 0.0378,-0.59619 0.0841,-0.83097 0.0776,-0.39382 0.11319,-0.42687 0.45957,-0.42687 0.74879,0 1.04249,0.85893 0.71332,2.0861 -0.36614,1.36496 -0.88242,1.96466 -1.6869,1.95942 -0.23644,-0.002 -0.53406,-0.045 -0.66137,-0.0966 z m 2.81085,-0.81746 c 0,-0.0488 0.10615,-0.12828 0.2359,-0.17658 0.42837,-0.15947 4.17394,-0.6379 5.33867,-0.68192 1.08671,-0.0411 1.15139,-0.0328 1.30529,0.16723 0.0891,0.11575 0.12571,0.25121 0.0815,0.30102 -0.0443,0.0498 -0.81021,0.11926 -1.70211,0.15434 -0.89191,0.0351 -2.36533,0.1225 -3.27427,0.19424 -1.96218,0.15488 -1.98494,0.15536 -1.98494,0.0417 z m 8.52246,-0.52887 c -0.2023,-0.14072 -0.21705,-0.30641 -0.13761,-1.54508 0.0489,-0.7631 0.13606,-1.50989 0.19359,-1.65953 0.14686,-0.38199 0.48505,-0.39243 0.82013,-0.0254 0.25961,0.28443 0.27374,0.39389 0.20676,1.60161 -0.0396,0.71298 -0.13212,1.40648 -0.20572,1.54112 -0.15529,0.28412 -0.53918,0.32227 -0.87715,0.0872 z m -4.40261,-1.30107 c -0.22771,-0.15839 -0.2428,-0.33616 -0.21131,-2.49055 0.0186,-1.27599 0.0599,-2.33807 0.0917,-2.36019 0.13817,-0.0961 0.49163,0.32608 0.69905,0.83499 0.29423,0.72189 0.44302,3.84034 0.19322,4.0497 -0.21884,0.18341 -0.47645,0.17209 -0.77267,-0.034 z"
       id="path1"
       inkscape:export-filename="shanse-logo.png"
       inkscape:export-xdpi="200"
       inkscape:export-ydpi="200" /></g></svg>
